# xmcd
#
# Track frame offsets:
#	150
#	16187
#	40335
#	51162
#	67695
#	88637
#	119300
#	138042
#	155935
#	173977
#	195155
#	214492
#	235350
#	246022
#
# Disc length: 3758 seconds
# Revision: 4
# Processed by: cddbd v1.5.2PL0 Copyright (c) Steve Scherf et al.
# Submitted via: dBpowerAMP V12.0
#
DISCID=ba0eac0e
DTITLE=Stevie Ray Vaughan and Double Trouble - Greatest Hits
DYEAR=1995
DGENRE=Blues/Rock
TTITLE0=Taxman
TTITLE1=Texas Flood
TTITLE2=The House Is Rockin'
TTITLE3=Pride and Joy
TTITLE4=Tightrope
TTITLE5=Little Wing
TTITLE6=Crossfire
TTITLE7=Change It
TTITLE8=Cold Shot
TTITLE9=Can't Stand the Weather
TTITLE10=Life Without You
TTITLE11=The Sky is Crying
TTITLE12=Love Struck Baby
TTITLE13=Voodoo Chile
EXTD=
EXTT0=
EXTT1=
EXTT2=
EXTT3=
EXTT4=
EXTT5=
EXTT6=
EXTT7=
EXTT8=
EXTT9=
EXTT10=
EXTT11=
EXTT12=
EXTT13=
PLAYORDER=
